<svg width="55" height="55" viewBox="0 0 55 55" fill="none" xmlns="http://www.w3.org/2000/svg">
<path d="M54.7916 27.0036C54.7916 69.8633 57.7753 50.7539 31.5462 50.7539C14.1237 50.7539 0 40.1206 0 27.0036C0 13.8867 13.619 5.14433 31.0415 5.14433C58.8603 5.14433 54.7916 -15.856 54.7916 27.0036Z" fill="white"/>
<path d="M27.2462 18.214L25.2699 19.7787C24.9095 20.0644 24.9104 20.5319 25.2699 20.8162L33.4591 27.2998L25.2699 33.7834C24.9095 34.0692 24.9118 34.537 25.2699 34.821L27.2462 36.3856C27.6057 36.6699 28.1971 36.6699 28.5566 36.3856L37.384 29.3963L37.401 29.3832L39.3772 27.8186C39.7363 27.5339 39.7381 27.0668 39.3772 26.7811L37.401 25.2164L37.384 25.2033L28.5566 18.214C28.1962 17.9287 27.6071 17.9287 27.2462 18.214Z" fill="#847F7F"/>
</svg>
